<?xml version="1.0" encoding="UTF-8" standalone="no"?>
<!-- Created with Inkscape (http://www.inkscape.org/) -->

<svg
   width="122.15041mm"
   height="122.15041mm"
   viewBox="0 0 122.15041 122.15041"
   version="1.1"
   id="svg1"
   inkscape:export-filename="icone.png"
   inkscape:export-xdpi="53.232727"
   inkscape:export-ydpi="53.232727"
   inkscape:version="1.3.2 (091e20e, 2023-11-25, custom)"
   sodipodi:docname="icone.svg"
   xmlns:inkscape="http://www.inkscape.org/namespaces/inkscape"
   xmlns:sodipodi="http://sodipodi.sourceforge.net/DTD/sodipodi-0.dtd"
   xmlns="http://www.w3.org/2000/svg"
   xmlns:svg="http://www.w3.org/2000/svg">
  <sodipodi:namedview
     id="namedview1"
     pagecolor="#ffffff"
     bordercolor="#000000"
     borderopacity="0.25"
     inkscape:showpageshadow="2"
     inkscape:pageopacity="0.0"
     inkscape:pagecheckerboard="0"
     inkscape:deskcolor="#d1d1d1"
     inkscape:document-units="mm"
     inkscape:zoom="0.7581159"
     inkscape:cx="384.50585"
     inkscape:cy="441.22541"
     inkscape:window-width="1920"
     inkscape:window-height="1009"
     inkscape:window-x="-8"
     inkscape:window-y="-8"
     inkscape:window-maximized="1"
     inkscape:current-layer="layer1" />
  <defs
     id="defs1" />
  <g
     inkscape:label="Calque 1"
     inkscape:groupmode="layer"
     id="layer1">
    <rect
       style="fill:#ffc105;fill-opacity:1;stroke:none;stroke-width:0.264583;stroke-linecap:round;stroke-dasharray:none;stroke-opacity:1"
       id="rect15"
       width="122.15041"
       height="122.15041"
       x="-3.5620118e-07"
       y="-4.5898437e-07" />
    <path
       style="fill:none;fill-opacity:1;stroke:#000000;stroke-width:2.54053;stroke-linecap:round;stroke-dasharray:none;stroke-opacity:1"
       d="m 47.872417,52.39434 c -1.110514,-9.50107 24.444166,-0.93453 24.431329,-9.50106 -0.01139,-7.60171 -18.110132,-1.1566 -17.151284,-7.897 0.532826,-3.74559 14.06652,-8.26716 14.06652,-8.26716"
       id="path10"
       sodipodi:nodetypes="cssc" />
    <g
       id="g14"
       style="fill:#cccccc"
       transform="translate(-20.239164,-81.977962)">
      <g
         id="g1"
         style="fill:#cccccc">
        <circle
           style="fill:#cccccc;stroke-width:0.264583"
           id="path1"
           cx="48.492485"
           cy="156.08905"
           r="22.580471" />
        <rect
           style="fill:#cccccc;stroke-width:0.264583"
           id="rect1"
           width="42.446575"
           height="37.502296"
           x="49.109207"
           y="133.517" />
      </g>
      <g
         id="g1-8"
         transform="matrix(-1,0,0,1,162.62874,0)"
         style="fill:#cccccc">
        <circle
           style="fill:#cccccc;stroke-width:0.264583"
           id="path1-2"
           cx="48.492485"
           cy="156.08905"
           r="22.580471" />
        <rect
           style="fill:#cccccc;stroke-width:0.264583"
           id="rect1-4"
           width="42.446575"
           height="37.502296"
           x="49.109207"
           y="133.517" />
      </g>
      <path
         id="path9"
         style="fill:#cccccc;stroke-width:0.264583"
         d="m 49.251767,131.65971 a 22.580471,22.580471 0 0 0 -7.207312,1.18132 v 8.38502 h 7.823812 13.585734 v -4.54029 -5.01727 H 49.868267 a 22.580471,22.580471 0 0 0 -0.6165,-0.009 z" />
      <path
         id="path9-7"
         style="fill:#cccccc;stroke-width:0.264583"
         d="m 113.09196,131.62339 a 22.580471,22.580471 0 0 1 7.20731,1.18132 v 8.38502 h -7.82381 -13.585731 v -4.54029 -5.01727 h 13.585731 a 22.580471,22.580471 0 0 1 0.6165,-0.009 z" />
    </g>
    <ellipse
       style="fill:#b3b3b3;fill-opacity:1;stroke:none;stroke-width:0.264583;stroke-linecap:round;stroke-dasharray:none;stroke-opacity:1"
       id="path2-1"
       cx="28.253323"
       cy="74.111084"
       rx="13.630894"
       ry="13.658627" />
    <g
       id="g15"
       style="fill:#333333"
       transform="translate(-20.239164,-81.977962)">
      <rect
         style="fill:#333333;fill-opacity:1;stroke:none;stroke-width:3.48809;stroke-linecap:round;stroke-dasharray:none;stroke-opacity:1"
         id="rect10"
         width="5.6759653"
         height="22.086893"
         x="45.654503"
         y="145.04561" />
      <rect
         style="fill:#333333;fill-opacity:1;stroke:none;stroke-width:3.48809;stroke-linecap:round;stroke-dasharray:none;stroke-opacity:1"
         id="rect10-2"
         width="5.6759653"
         height="22.086893"
         x="153.25107"
         y="-59.535931"
         transform="rotate(90)" />
    </g>
    <rect
       style="fill:#333333;fill-opacity:1;stroke:none;stroke-width:2.05946;stroke-linecap:round;stroke-dasharray:none;stroke-opacity:1"
       id="rect11"
       width="11.228539"
       height="2.8379822"
       x="-5.7674017"
       y="93.237198"
       rx="2"
       transform="rotate(-34.807827)" />
    <rect
       style="fill:#333333;fill-opacity:1;stroke:none;stroke-width:2.05946;stroke-linecap:round;stroke-dasharray:none;stroke-opacity:1"
       id="rect11-3"
       width="11.228539"
       height="2.8379822"
       x="3.7758305"
       y="99.871857"
       rx="2"
       transform="rotate(-34.807827)" />
    <ellipse
       style="fill:#4d4d4d;fill-opacity:1;stroke:none;stroke-width:5.00015;stroke-linecap:round;stroke-dasharray:none;stroke-opacity:1"
       id="path2"
       cx="93.897087"
       cy="74.111084"
       rx="19.063839"
       ry="19.91382" />
    <path
       id="path12"
       style="fill:#cccccc;fill-opacity:1;stroke:none;stroke-width:3.14391;stroke-linecap:round;stroke-dasharray:none;stroke-opacity:1"
       d="m 93.897241,57.88464 c -1.63648,-1.1e-4 -3.20456,0.6565 -4.35271,1.82262 l -9.81284,9.78235 c -1.25549,1.24741 -2.114536,2.84692 -2.114601,4.62143 1.12e-4,3.37311 2.734531,6.10752 6.107641,6.10763 1.61424,-9e-5 3.16281,-0.63921 4.30723,-1.77766 0,0 6.81164,-6.77548 10.21746,-10.16321 l -0.005,-0.005 c 1.12566,-1.14057 1.757979,-2.67786 1.760609,-4.28036 -1.1e-4,-3.3731 -2.734529,-6.10752 -6.107629,-6.10763 z"
       sodipodi:nodetypes="cccccccccc" />
    <path
       id="path12-6"
       style="fill:#cccccc;fill-opacity:1;stroke:none;stroke-width:3.14391;stroke-linecap:round;stroke-dasharray:none;stroke-opacity:1"
       d="m 104.07776,69.05166 c -1.63648,-1.1e-4 -3.20456,0.6565 -4.352709,1.82262 l -9.81284,9.78235 c -1.25548,1.24741 -2.11453,2.84692 -2.1146,4.62143 1.1e-4,3.37311 2.73453,6.10752 6.10764,6.10763 1.61424,-9e-5 3.16281,-0.63921 4.30723,-1.77766 0,0 6.811639,-6.77548 10.217459,-10.16321 l -0.005,-0.005 c 1.12566,-1.14057 1.75798,-2.67786 1.76061,-4.28036 -1.1e-4,-3.3731 -2.73453,-6.10752 -6.10763,-6.10763 z"
       sodipodi:nodetypes="cccccccccc" />
    <circle
       style="fill:#0000ff;fill-opacity:1;stroke:none;stroke-width:2.71336;stroke-linecap:round;stroke-dasharray:none;stroke-opacity:1"
       id="path13"
       cx="93.654137"
       cy="64.208572"
       r="4.8430791" />
    <circle
       style="fill:#00d455;fill-opacity:1;stroke:none;stroke-width:2.71336;stroke-linecap:round;stroke-dasharray:none;stroke-opacity:1"
       id="path13-9"
       cx="83.967987"
       cy="73.89473"
       r="4.8430791" />
    <circle
       style="fill:#ff0000;fill-opacity:1;stroke:none;stroke-width:2.71336;stroke-linecap:round;stroke-dasharray:none;stroke-opacity:1"
       id="path13-9-8"
       cx="103.83466"
       cy="75.375595"
       r="4.8430791" />
    <circle
       style="fill:#ffff00;fill-opacity:1;stroke:none;stroke-width:2.71336;stroke-linecap:round;stroke-dasharray:none;stroke-opacity:1"
       id="path13-9-8-5"
       cx="94.148491"
       cy="85.061752"
       r="4.8430791" />
  </g>
</svg>
